<svg width="21" height="20" viewBox="0 0 21 20" fill="none" xmlns="http://www.w3.org/2000/svg">
<path d="M20 19H1V1H20V19Z" stroke="black" stroke-width="2" stroke-linejoin="round"/>
<path d="M9 10C8.40666 10 7.82664 10.1759 7.33329 10.5056C6.83994 10.8352 6.45543 11.3038 6.22836 11.8519C6.0013 12.4001 5.94189 13.0033 6.05765 13.5853C6.1734 14.1672 6.45912 14.7018 6.87868 15.1213C7.29824 15.5409 7.83279 15.8266 8.41473 15.9424C8.99667 16.0581 9.59987 15.9987 10.1481 15.7716C10.6962 15.5446 11.1648 15.1601 11.4944 14.6667C11.8241 14.1734 12 13.5933 12 13V4C12.333 5 13.6 7 16 7" stroke="black" stroke-width="2" stroke-linejoin="round"/>
</svg>
